<?xml version="1.0" encoding="UTF-8" standalone="no"?>
<!-- Created with Inkscape (http://www.inkscape.org/) -->

<svg width="47.375626" height="49.684009" viewBox="0 0 47.375626 49.684009"  version="1.1" xmlns="http://www.w3.org/2000/svg" xmlns:xlink="http://www.w3.org/1999/xlink">
<g class="transform-group">
      <g transform="translate(0, 25.375) scale(1, -1) scale(0.03125, 0.03125)">
        <path d="M304.799993 95.567206c4.060799 0 20.043183-5.762329 24.029168-5.965717-17.514016 7.638132-32.040622 48.084184-32.040622 93.688442 16.023948 112.718325 43.242111 253.423666 50.331885 313.535944-2.057416 0.088605-4.034822 0.380598-6.122372 0.380598-48.442802 0-90.84636-23.900123-100.126555-55.648814L130.948314 5.134989C163.110511 58.498203 228.004331 95.567206 304.799993 95.567206zM304.635815 67.742296c-110.509234 0-183.753255-75.92017-166.933357-154.051431 13.997705-65.029841 87.84752-110.252495 166.933357-110.252495 79.09311 0 152.942926 45.22366 166.936474 110.252495C488.393226-8.177874 415.148166 67.742296 304.635815 67.742296zM713.328058 89.601489c5.082234 0.332268 18.83575 5.965717 24.032285 5.965717 75.008411 0 138.553481-35.41874 171.45136-86.788347L802.513938 444.497725c-9.281234 31.748691-50.834809 53.714613-99.273455 53.714613-2.00754 0-3.913247-0.283938-5.889614-0.365495 8.602702-69.027124 32.37833-194.355514 48.020928-298.94536C745.372837 135.552111 725.149889 100.358911 713.328058 89.601489zM737.200322 67.742296c-110.512351 0-183.757411-75.92017-166.936474-154.051431 13.997705-65.029841 87.84752-110.252495 166.936474-110.252495s152.935652 45.22366 166.936474 110.252495C920.957733-8.177874 847.712673 67.742296 737.200322 67.742296zM521.082246 370.657753c84.00701 0 155.180106-39.756345 192.021366-97.412862L633.224944 749.543724l-2.251728 0c-10.39307 35.636224-55.639603 62.456276-109.892009 62.456276-54.256562 0-99.502056-26.820052-109.895126-62.456276l-2.247571 0L326.363378 269.157997C362.381672 329.052791 435.066658 370.657753 521.082246 370.657753zM707.871748 166.510407c18.83575 87.700574-63.19801 172.919207-186.969266 172.919207-123.774373 0-205.809173-85.219641-186.969266-172.919207 15.673772-72.988158 98.386064-123.749615 186.969266-123.749615C609.478411 42.760792 692.190703 93.521242 707.871748 166.510407z" fill="#737383"></path>
      </g>
    </g>
</svg>