<?xml version="1.0" encoding="UTF-8" standalone="no"?>
<!-- Created with Inkscape (http://www.inkscape.org/) -->

<svg width="47.375626" height="49.684009" viewBox="0 0 47.375626 49.684009"  version="1.1" xmlns="http://www.w3.org/2000/svg" xmlns:xlink="http://www.w3.org/1999/xlink">
<g class="transform-group">
      <g transform="translate(0, 25.375) scale(1, -1) scale(0.03125, 0.03125)">
        <path d="M973.714875-39.202624c0-87.056175-87.398629-157.626834-195.210362-157.626834-107.808615 0-195.207244 70.570659-195.207244 157.626834 0 28.502535 10.095887 54.86144 26.480403 77.9319l10.201875 13.914972 14.201368 15.43837c-14.695979-2.471871-67.84694-12.70874-83.421997-12.70874s-45.973903 4.530924-60.666765 7.002795l-21.475062 6.041233c1.385119-2.349033 17.799768-21.767568 17.799768-21.767568 19.96629-24.725758 31.805786-54.133472 31.805786-85.854977 0-87.056175-87.395512-157.626834-195.210362-157.626834-107.811732 0-194.171263 70.570659-194.171263 157.626834 0 8.277496 0.34602 10.044556 0.34602 10.044556l1.896356 13.760921 126.862576 512.136431c0 0 16.335678 63.055365 79.262483 63.055365 17.042265 0 30.735514-4.788684 41.989997-11.535734l41.423688 200.69176c0 0 40.154948 63.049324 130.136778 63.049324s130.139895-63.049324 130.139895-63.049324l41.043377-198.853212c10.268378 5.803611 22.813422 9.697185 38.1339 9.697185 61.966678 0 70.916439-40.901158 70.916439-40.901158L971.882943-18.395612c-0.067541 0.092632 0 0 0 0S973.714875-26.645922 973.714875-39.202624zM323.013323-133.781141c71.876566 0 130.139895 42.34602 130.139895 94.578517 0 52.235518-58.263328 94.578517-130.139895 94.578517-71.873449 0-130.139895-42.342999-130.139895-94.578517C192.872389-91.435121 251.139874-133.781141 323.013323-133.781141zM329.296755 298.362323 329.296755 298.362323l40.309773 203.433473c-8.920666 13.874698-20.201127 26.469661-32.398072 26.469661-27.381302 0-46.730367-63.049324-46.730367-63.049324l-91.335776-383.520603c33.784231 22.598237 76.571216 36.730694 123.87101 36.730694 25.510923 0 49.722973-4.217787 72.061526-11.402827-44.211591 34.448115-72.017884 83.59757-72.017884 137.933423C323.056965 263.52052 323.296997 281.411631 329.296755 298.362323zM648.363579 717.421483c0 0-44.69685 63.052345-97.6057 63.052345S453.153217 717.421483 453.153217 717.421483l-57.571288-334.708451c40.688005 31.532214 95.135762 50.974914 155.17595 50.974914s114.487944-19.441693 155.17595-50.974914L648.363579 717.421483zM550.758918 370.638622c-89.842591 0-162.675128-56.460353-162.675128-126.10771 0-69.644336 72.832538-126.103682 162.675128-126.103682 89.845708 0 162.675128 56.460353 162.675128 126.103682C713.434046 314.179276 640.604626 370.638622 550.758918 370.638622zM811.038707 465.217139c0 0-23.575082 63.049324-50.962618 63.049324-11.279421 0-21.056305-10.788635-28.803828-23.373529l41.532793-207.067275 0 0c5.384612-16.126064 8.485284-33.042522 8.485284-50.593309 0-54.334846-30.636799-105.758825-74.845273-140.20694 22.335436 7.185039 46.551642 11.402827 72.058409 11.402827 47.299793 0 90.086779-14.133464 123.87101-36.730694L811.038707 465.217139zM778.504513 55.375893c-71.873449 0-130.139895-42.342999-130.139895-94.578517 0-52.232497 58.267485-94.578517 130.139895-94.578517s130.139895 42.34602 130.139895 94.578517C908.644408 13.032893 850.376923 55.375893 778.504513 55.375893z" fill="#737383"></path>
      </g>
    </g>
</svg>