<?xml version="1.0" encoding="UTF-8" standalone="no"?>
<!-- Created with Inkscape (http://www.inkscape.org/) -->

<svg width="47.375626" height="49.684009" viewBox="0 0 47.375626 49.684009"  version="1.1" xmlns="http://www.w3.org/2000/svg" xmlns:xlink="http://www.w3.org/1999/xlink">
<g class="transform-group">
      <g transform="translate(0, 25.375) scale(1, -1) scale(0.03125, 0.03125)">
        <path d="M942.254452-101.029977c0 0-32.488741-0.503947-32.488741-31.487157 0 0-0.867834-62.964255-64.986824-62.964255-32.650681 0-31.373845 0-64.982672 0-64.015183 0-64.979557 62.964255-64.979557 62.964255s0.460907 31.487157-32.49497 31.487157c-32.952761 0-294.949225 0-324.912321 0s-32.49497-31.487157-32.49497-31.487157 1.05884-62.964255-64.979557-62.964255c-32.121261 0-32.682862 0-64.986824 0-65.379218 0-64.98371 62.964255-64.98371 62.964255 0 27.967572-32.491855 31.487157-32.491855 31.487157s-97.474527-1.359954-97.474527 94.451411c0 95.808348 0 288.949962 0 377.806653 0 88.853673 97.474527 94.451411 97.474527 94.451411l32.491855 0L129.964306 717.548589c0 0-3.496248 94.451411 97.477641 94.451411 26.364078 0 127.178103 0 127.178103 0l25.021843 0 264.289579 0c0 0 136.334993 0 168.35556 0 97.959309 0 97.477641-94.451411 97.477641-94.451411l0-251.868084 32.488741 0c0 0 97.474527 1.359954 97.474527-94.451411 0-95.815389 0-282.246757 0-377.806653S942.254452-101.029977 942.254452-101.029977zM844.779925 686.064449c0 0-0.526305 62.971296-64.982672 62.971296-9.396686 0-97.465184 0-97.465184 0l-32.501197 0L389.901222 749.035745l-41.261542 0c0 0-73.369308 0-88.70484 0-67.06921 0-64.986824-62.971296-64.986824-62.971296l0-503.739186c0 0-0.539801-62.971296 64.986824-62.971296 65.522472 0 456.864547 0 519.862413 0 63.00098 0 64.982672 62.971296 64.982672 62.971296L844.779925 686.064449zM974.746308 339.741936c0 58.770728-64.979557 62.967273-64.979557 62.967273l0-251.871102c0 0-1.543622-94.451411-97.477641-94.451411-100.483916 0-485.908945 0-584.849238 0-98.93718 0-97.474527 94.451411-97.474527 94.451411L129.965344 402.709209c0 0-64.982672 5.106869-64.982672-62.967273 0-56.255015 0-314.838374 0-314.838374s-1.118011-62.967273 64.982672-62.967273c66.103797 0 64.98371-62.964255 64.98371-62.964255s-0.546029-31.487157 32.491855-31.487157c33.040999 0 32.49497 31.487157 32.49497 31.487157s-1.592412 62.964255 64.979557 62.964255c33.388755 0 356.270595 0 389.90226 0 65.35638 0 64.979557-62.964255 64.979557-62.964255s-4.643324-31.487157 32.491855-31.487157 32.491855 31.487157 32.491855 31.487157 0.86472 62.964255 64.986824 62.964255 64.979557 62.967273 64.979557 62.967273S974.746308 280.971208 974.746308 339.741936zM714.816658 242.976993c-64.811389 0-323.885662 0-389.90226 0s-69.288621 62.971296 0 62.971296 326.37186 0 389.90226 0C778.34083 305.947283 779.621819 242.976993 714.816658 242.976993z" fill="#737383"></path>
      </g>
    </g>
</svg>